<svg width="86" height="22" viewBox="0 0 86 22" fill="none" xmlns="http://www.w3.org/2000/svg">
<g filter="url(#filter0_d_20005153_1589)">
<path d="M16.8024 5.35438C16.7272 5.13388 16.5283 4.97813 16.2961 4.96004L12.9705 4.69579L11.5314 1.51021C11.4375 1.30079 11.2293 1.16663 11 1.16663C10.7708 1.16663 10.5625 1.30079 10.4686 1.50963L9.02953 4.69579L5.70395 4.96004C5.47586 4.97813 5.27928 5.12804 5.2017 5.34329C5.12411 5.55854 5.17895 5.79946 5.34286 5.95929L7.80045 8.35504L6.93128 12.1187C6.87761 12.3515 6.97153 12.5935 7.16811 12.7295C7.26845 12.7983 7.38395 12.8333 7.50003 12.8333C7.61261 12.8333 7.72578 12.8006 7.82378 12.7353L11 10.6178L14.1763 12.7353C14.3793 12.8706 14.6459 12.8654 14.8442 12.7213C15.0414 12.5772 15.1283 12.3246 15.0612 12.0901L13.9943 8.35679L16.6403 5.97563C16.8135 5.81929 16.8771 5.57546 16.8024 5.35438Z" fill="#FFBA08"/>
<path d="M32.8024 5.35438C32.7272 5.13388 32.5283 4.97813 32.2961 4.96004L28.9705 4.69579L27.5314 1.51021C27.4375 1.30079 27.2293 1.16663 27 1.16663C26.7708 1.16663 26.5625 1.30079 26.4686 1.50963L25.0295 4.69579L21.7039 4.96004C21.4759 4.97813 21.2793 5.12804 21.2017 5.34329C21.1241 5.55854 21.1789 5.79946 21.3429 5.95929L23.8004 8.35504L22.9313 12.1187C22.8776 12.3515 22.9715 12.5935 23.1681 12.7295C23.2684 12.7983 23.3839 12.8333 23.5 12.8333C23.6126 12.8333 23.7258 12.8006 23.8238 12.7353L27 10.6178L30.1763 12.7353C30.3793 12.8706 30.6459 12.8654 30.8442 12.7213C31.0414 12.5772 31.1283 12.3246 31.0612 12.0901L29.9943 8.35679L32.6403 5.97563C32.8135 5.81929 32.8771 5.57546 32.8024 5.35438Z" fill="#FFBA08"/>
<path d="M48.8024 5.35438C48.7272 5.13388 48.5283 4.97813 48.2961 4.96004L44.9705 4.69579L43.5314 1.51021C43.4375 1.30079 43.2293 1.16663 43 1.16663C42.7708 1.16663 42.5625 1.30079 42.4686 1.50963L41.0295 4.69579L37.7039 4.96004C37.4759 4.97813 37.2793 5.12804 37.2017 5.34329C37.1241 5.55854 37.1789 5.79946 37.3429 5.95929L39.8004 8.35504L38.9313 12.1187C38.8776 12.3515 38.9715 12.5935 39.1681 12.7295C39.2684 12.7983 39.3839 12.8333 39.5 12.8333C39.6126 12.8333 39.7258 12.8006 39.8238 12.7353L43 10.6178L46.1763 12.7353C46.3793 12.8706 46.6459 12.8654 46.8442 12.7213C47.0414 12.5772 47.1283 12.3246 47.0612 12.0901L45.9943 8.35679L48.6403 5.97563C48.8135 5.81929 48.8771 5.57546 48.8024 5.35438Z" fill="#FFBA08"/>
<path d="M64.8024 5.35438C64.7272 5.13388 64.5283 4.97813 64.2961 4.96004L60.9705 4.69579L59.5314 1.51021C59.4375 1.30079 59.2293 1.16663 59 1.16663C58.7708 1.16663 58.5625 1.30079 58.4686 1.50963L57.0295 4.69579L53.7039 4.96004C53.4759 4.97813 53.2793 5.12804 53.2017 5.34329C53.1241 5.55854 53.1789 5.79946 53.3429 5.95929L55.8004 8.35504L54.9313 12.1187C54.8776 12.3515 54.9715 12.5935 55.1681 12.7295C55.2684 12.7983 55.3839 12.8333 55.5 12.8333C55.6126 12.8333 55.7258 12.8006 55.8238 12.7353L59 10.6178L62.1763 12.7353C62.3793 12.8706 62.6459 12.8654 62.8442 12.7213C63.0414 12.5772 63.1283 12.3246 63.0612 12.0901L61.9943 8.35679L64.6403 5.97563C64.8135 5.81929 64.8771 5.57546 64.8024 5.35438Z" fill="#FFBA08"/>
<path d="M80.8024 5.35438C80.7272 5.13388 80.5283 4.97813 80.2961 4.96004L76.9705 4.69579L75.5314 1.51021C75.4375 1.30079 75.2293 1.16663 75 1.16663C74.7708 1.16663 74.5625 1.30079 74.4686 1.50963L73.0295 4.69579L69.7039 4.96004C69.4759 4.97813 69.2793 5.12804 69.2017 5.34329C69.1241 5.55854 69.1789 5.79946 69.3429 5.95929L71.8004 8.35504L70.9313 12.1187C70.8776 12.3515 70.9715 12.5935 71.1681 12.7295C71.2684 12.7983 71.3839 12.8333 71.5 12.8333C71.6126 12.8333 71.7258 12.8006 71.8238 12.7353L75 10.6178L78.1763 12.7353C78.3793 12.8706 78.6459 12.8654 78.8442 12.7213C79.0414 12.5772 79.1283 12.3246 79.0612 12.0901L77.9943 8.35679L80.6403 5.97563C80.8135 5.81929 80.8771 5.57546 80.8024 5.35438Z" fill="#FFBA08"/>
</g>
<defs>
<filter id="filter0_d_20005153_1589" x="0" y="0" width="86" height="22" filterUnits="userSpaceOnUse" color-interpolation-filters="sRGB">
<feFlood flood-opacity="0" result="BackgroundImageFix"/>
<feColorMatrix in="SourceAlpha" type="matrix" values="0 0 0 0 0 0 0 0 0 0 0 0 0 0 0 0 0 0 127 0" result="hardAlpha"/>
<feOffset dy="4"/>
<feGaussianBlur stdDeviation="2"/>
<feComposite in2="hardAlpha" operator="out"/>
<feColorMatrix type="matrix" values="0 0 0 0 0 0 0 0 0 0 0 0 0 0 0 0 0 0 0.25 0"/>
<feBlend mode="normal" in2="BackgroundImageFix" result="effect1_dropShadow_20005153_1589"/>
<feBlend mode="normal" in="SourceGraphic" in2="effect1_dropShadow_20005153_1589" result="shape"/>
</filter>
</defs>
</svg>
